<mxfile host="app.diagrams.net" modified="2024-05-13T11:16:39.453Z" agent="Mozilla/5.0 (X11; Linux x86_64) AppleWebKit/537.36 (KHTML, like Gecko) Chrome/124.0.0.0 Safari/537.36" etag="8FIMQ4z--yvV6IA8-pV9" version="24.4.0" type="github">
  <diagram name="Page-1" id="mCVVEa3smK-YiZ0mzxus">
    <mxGraphModel dx="821" dy="466" grid="1" gridSize="10" guides="1" tooltips="1" connect="1" arrows="1" fold="1" page="1" pageScale="1" pageWidth="827" pageHeight="1169" math="0" shadow="0">
      <root>
        <mxCell id="0" />
        <mxCell id="1" parent="0" />
        <mxCell id="NOcSir-Sgeb0x2OFEILC-6" value="User" style="shape=umlLifeline;perimeter=lifelinePerimeter;whiteSpace=wrap;container=1;dropTarget=0;collapsible=0;recursiveResize=0;outlineConnect=0;portConstraint=eastwest;newEdgeStyle={&quot;edgeStyle&quot;:&quot;elbowEdgeStyle&quot;,&quot;elbow&quot;:&quot;vertical&quot;,&quot;curved&quot;:0,&quot;rounded&quot;:0};size=65;" vertex="1" parent="1">
          <mxGeometry x="20" y="20" width="150" height="436" as="geometry" />
        </mxCell>
        <mxCell id="NOcSir-Sgeb0x2OFEILC-7" value="Database" style="shape=umlLifeline;perimeter=lifelinePerimeter;whiteSpace=wrap;container=1;dropTarget=0;collapsible=0;recursiveResize=0;outlineConnect=0;portConstraint=eastwest;newEdgeStyle={&quot;edgeStyle&quot;:&quot;elbowEdgeStyle&quot;,&quot;elbow&quot;:&quot;vertical&quot;,&quot;curved&quot;:0,&quot;rounded&quot;:0};size=65;" vertex="1" parent="1">
          <mxGeometry x="259" y="20" width="150" height="436" as="geometry" />
        </mxCell>
        <mxCell id="NOcSir-Sgeb0x2OFEILC-8" value="Insert query for Table 1" style="verticalAlign=bottom;endArrow=block;edgeStyle=elbowEdgeStyle;elbow=vertical;curved=0;rounded=0;" edge="1" parent="1" source="NOcSir-Sgeb0x2OFEILC-6" target="NOcSir-Sgeb0x2OFEILC-7">
          <mxGeometry relative="1" as="geometry">
            <Array as="points">
              <mxPoint x="225" y="121" />
            </Array>
          </mxGeometry>
        </mxCell>
        <mxCell id="NOcSir-Sgeb0x2OFEILC-9" value="Success response" style="verticalAlign=bottom;endArrow=block;edgeStyle=elbowEdgeStyle;elbow=vertical;curved=0;rounded=0;dashed=1;dashPattern=2 3;" edge="1" parent="1" source="NOcSir-Sgeb0x2OFEILC-7" target="NOcSir-Sgeb0x2OFEILC-6">
          <mxGeometry relative="1" as="geometry">
            <Array as="points">
              <mxPoint x="225" y="167" />
            </Array>
          </mxGeometry>
        </mxCell>
        <mxCell id="NOcSir-Sgeb0x2OFEILC-10" value="Insert query for Table 2" style="verticalAlign=bottom;endArrow=block;edgeStyle=elbowEdgeStyle;elbow=vertical;curved=0;rounded=0;" edge="1" parent="1" source="NOcSir-Sgeb0x2OFEILC-6" target="NOcSir-Sgeb0x2OFEILC-7">
          <mxGeometry relative="1" as="geometry">
            <Array as="points">
              <mxPoint x="225" y="213" />
            </Array>
          </mxGeometry>
        </mxCell>
        <mxCell id="NOcSir-Sgeb0x2OFEILC-11" value="Success response" style="verticalAlign=bottom;endArrow=block;edgeStyle=elbowEdgeStyle;elbow=vertical;curved=0;rounded=0;dashed=1;dashPattern=2 3;" edge="1" parent="1" source="NOcSir-Sgeb0x2OFEILC-7" target="NOcSir-Sgeb0x2OFEILC-6">
          <mxGeometry relative="1" as="geometry">
            <Array as="points">
              <mxPoint x="225" y="259" />
            </Array>
          </mxGeometry>
        </mxCell>
        <mxCell id="NOcSir-Sgeb0x2OFEILC-12" value="Insert query for Table 3" style="verticalAlign=bottom;endArrow=block;edgeStyle=elbowEdgeStyle;elbow=vertical;curved=0;rounded=0;" edge="1" parent="1" source="NOcSir-Sgeb0x2OFEILC-6" target="NOcSir-Sgeb0x2OFEILC-7">
          <mxGeometry relative="1" as="geometry">
            <Array as="points">
              <mxPoint x="225" y="305" />
            </Array>
          </mxGeometry>
        </mxCell>
        <mxCell id="NOcSir-Sgeb0x2OFEILC-13" value="Success response" style="verticalAlign=bottom;endArrow=block;edgeStyle=elbowEdgeStyle;elbow=vertical;curved=0;rounded=0;dashed=1;dashPattern=2 3;" edge="1" parent="1" source="NOcSir-Sgeb0x2OFEILC-7" target="NOcSir-Sgeb0x2OFEILC-6">
          <mxGeometry relative="1" as="geometry">
            <Array as="points">
              <mxPoint x="225" y="351" />
            </Array>
          </mxGeometry>
        </mxCell>
      </root>
    </mxGraphModel>
  </diagram>
</mxfile>
